<svg width="32" height="49" viewBox="0 0 32 49" fill="none" xmlns="http://www.w3.org/2000/svg">
<path fill-rule="evenodd" clip-rule="evenodd" d="M6.16624e-10 5.16364C6.16624e-10 2.57273 1.86391 0.5 4.7929 0.5H27.2071C30.6686 0.5 32 3.35 32 5.16364V43.5773C32 46.1682 30.1361 48.5 27.7396 48.5H4.7929C2.13022 48.5 -4.18498e-05 46.4273 6.16624e-10 44.3545V5.16364ZM5.40828 4.20909C4.55621 4.20909 3.81065 4.72727 3.81065 5.76364V42.3H28.1894V5.76364C28.1894 4.72727 27.6568 4.20909 26.5917 4.20909H22.4142H5.40828Z" fill="white"/>
<path fill-rule="evenodd" clip-rule="evenodd" d="M9.23077 16.4C10.1538 15.8 11.0769 16.46 12.3077 19.1C13.7436 18.6 17.2308 17.96 19.6923 19.4C20.2051 17.9 21.2308 15.2 23.0769 16.4C24.3077 17.6 21.5385 20.06 21.5385 20.3C26.4615 25.1 24.9231 27.5 23.3846 28.7C22.7692 29.6 9.84615 29.6 8.92308 28.7C6.76923 27.2 6.15385 24.5 10.4615 20.3C8.98462 18.62 8.30769 17 9.23077 16.4ZM12.3077 25.7C12.9874 25.7 13.5385 25.1627 13.5385 24.5C13.5385 23.8373 12.9874 23.3 12.3077 23.3C11.628 23.3 11.0769 23.8373 11.0769 24.5C11.0769 25.1627 11.628 25.7 12.3077 25.7ZM19.6923 25.7C20.372 25.7 20.9231 25.1627 20.9231 24.5C20.9231 23.8373 20.372 23.3 19.6923 23.3C19.0126 23.3 18.4615 23.8373 18.4615 24.5C18.4615 25.1627 19.0126 25.7 19.6923 25.7Z" fill="white"/>
</svg>
