<svg width="26" height="45" viewBox="0 0 26 45" fill="none" xmlns="http://www.w3.org/2000/svg">
<path fill-rule="evenodd" clip-rule="evenodd" d="M4.68 8.2C1.82 8.2 6.02099e-10 10.4 6.02099e-10 13.15V32.4C-4.0864e-05 34.6 2.08004 36.8 4.68 36.8H20.8C23.14 36.8 24.96 34.325 24.96 31.575V28V22.5V20.3V13.7V13.15C24.96 11.225 23.66 8.2 20.28 8.2H17.68H7.28H4.68ZM4.68 11.5C3.848 11.5 3.12 12.05 3.12 13.15V31.85C3.12 32.95 3.64 33.5 4.68 33.5H20.28C21.1709 33.5 21.84 32.95 21.84 31.85V13.15C21.84 12.05 21.32 11.5 20.28 11.5H17.68H4.68Z" fill="white"/>
<path d="M8.84 0.5C5.2 1.6 4.68 4.35 4.68 8.2H7.28C7.28 6.73333 7.54 3.8 8.84 3.25H16.12C17.42 3.8 17.68 6.55 17.68 8.2H20.28C20.28 4.625 19.5 1.6 16.12 0.5H8.84Z" fill="white"/>
<path d="M16.12 44.5C19.76 43.4 20.28 40.65 20.28 36.8H17.68C17.68 38.2667 17.42 41.2 16.12 41.75H8.84C7.54 41.2 7.28 38.45 7.28 36.8H4.68C4.68 40.375 5.46 43.4 8.84 44.5H16.12Z" fill="white"/>
<path d="M26 15.21C26 14.25 25.48 13.7 24.96 13.7V20.3C25.48 20.3 26 19.475 26 18.65V15.21Z" fill="white"/>
<path d="M26 24.15C26 23.05 25.48 22.5 24.96 22.5V28C25.48 28 26 27.45 26 26.35V24.15Z" fill="white"/>
</svg>
