<svg width="25" height="26" viewBox="0 0 25 26" fill="none" xmlns="http://www.w3.org/2000/svg">
<path d="M15.0339 2.24101C15.0678 2.1141 15.1264 1.99512 15.2064 1.89087C15.2863 1.78663 15.386 1.69915 15.4998 1.63345C15.6135 1.56774 15.7391 1.5251 15.8694 1.50795C15.9996 1.4908 16.132 1.49949 16.2589 1.53351C18.1127 2.0172 19.8041 2.98633 21.1589 4.34108C22.5136 5.69583 23.4827 7.38723 23.9664 9.24108C24.0005 9.36797 24.0091 9.50033 23.992 9.63057C23.9748 9.76082 23.9322 9.88642 23.8665 10.0002C23.8008 10.1139 23.7133 10.2136 23.6091 10.2936C23.5048 10.3735 23.3858 10.4321 23.2589 10.4661C23.1745 10.4883 23.0875 10.4997 23.0002 10.4998C22.78 10.4999 22.5659 10.4273 22.3912 10.2933C22.2165 10.1592 22.0909 9.97129 22.0339 9.75859C21.6396 8.24499 20.8488 6.86395 19.7429 5.75785C18.637 4.65175 17.2561 3.86062 15.7426 3.46603C15.6156 3.43221 15.4965 3.37369 15.3921 3.29381C15.2877 3.21392 15.2001 3.11424 15.1343 3.00046C15.0684 2.88668 15.0257 2.76105 15.0085 2.63073C14.9912 2.50042 14.9999 2.36799 15.0339 2.24101ZM14.7426 7.46606C16.4664 7.92607 17.5739 9.03483 18.0339 10.7586C18.0909 10.9713 18.2165 11.1592 18.3912 11.2933C18.5659 11.4273 18.7799 11.4999 19.0001 11.4999C19.0875 11.4997 19.1744 11.4883 19.2589 11.4661C19.3858 11.4322 19.5048 11.3735 19.609 11.2936C19.7133 11.2137 19.8008 11.114 19.8665 11.0002C19.9322 10.8864 19.9748 10.7608 19.992 10.6306C20.0091 10.5003 20.0004 10.368 19.9664 10.2411C19.3264 7.84607 17.6539 6.17355 15.2589 5.53355C15.0026 5.46509 14.7296 5.50123 14.5 5.63403C14.2704 5.76683 14.1029 5.98541 14.0345 6.24168C13.966 6.49795 14.0022 6.77091 14.135 7.00053C14.2678 7.23015 14.4863 7.39761 14.7426 7.46606ZM23.7964 17.3074L17.9076 14.6686L17.8914 14.6611C17.5857 14.5304 17.2522 14.4779 16.9211 14.5085C16.59 14.539 16.2717 14.6516 15.9951 14.8361C15.9625 14.8576 15.9312 14.881 15.9014 14.9061L12.8589 17.4999C10.9313 16.5637 8.94133 14.5886 8.00507 12.6861L10.6026 9.59733C10.6276 9.56608 10.6513 9.53483 10.6738 9.50109C10.8544 9.22521 10.9639 8.90898 10.9927 8.58054C11.0215 8.2521 10.9686 7.92164 10.8388 7.61857V7.60357L8.19257 1.70476C8.02099 1.30884 7.72597 0.979021 7.35155 0.764548C6.97712 0.550075 6.54337 0.462448 6.11505 0.514747C4.42126 0.737633 2.86651 1.56947 1.74119 2.85489C0.615875 4.14031 -0.00305119 5.79141 1.13109e-05 7.49981C1.13109e-05 17.4249 8.07507 25.5 18.0001 25.5C19.7085 25.503 21.3596 24.8841 22.6451 23.7588C23.9305 22.6335 24.7623 21.0787 24.9852 19.3849C25.0376 18.9568 24.9501 18.5231 24.7359 18.1487C24.5217 17.7743 24.1921 17.4792 23.7964 17.3074Z" fill="#222222"/>
</svg>
