<svg width="15" height="15" viewBox="0 0 15 15" fill="none" xmlns="http://www.w3.org/2000/svg">
<path d="M9.24638 7.5L14.1346 2.61179C14.3666 2.38021 14.4971 2.06595 14.4974 1.73815C14.4977 1.41035 14.3677 1.09586 14.1361 0.86387C13.9045 0.631876 13.5903 0.501381 13.2625 0.501092C12.9347 0.500802 12.6202 0.630742 12.3882 0.862326L7.5 5.75054L2.61179 0.862326C2.3798 0.630333 2.06515 0.5 1.73706 0.5C1.40897 0.5 1.09432 0.630333 0.862326 0.862326C0.630333 1.09432 0.5 1.40897 0.5 1.73706C0.5 2.06515 0.630333 2.3798 0.862326 2.61179L5.75054 7.5L0.862326 12.3882C0.630333 12.6202 0.5 12.9349 0.5 13.2629C0.5 13.591 0.630333 13.9057 0.862326 14.1377C1.09432 14.3697 1.40897 14.5 1.73706 14.5C2.06515 14.5 2.3798 14.3697 2.61179 14.1377L7.5 9.24946L12.3882 14.1377C12.6202 14.3697 12.9349 14.5 13.2629 14.5C13.591 14.5 13.9057 14.3697 14.1377 14.1377C14.3697 13.9057 14.5 13.591 14.5 13.2629C14.5 12.9349 14.3697 12.6202 14.1377 12.3882L9.24638 7.5Z" fill="#222222"/>
</svg>
