<svg width="40" height="49" viewBox="0 0 40 49" fill="none" xmlns="http://www.w3.org/2000/svg">
<path fill-rule="evenodd" clip-rule="evenodd" d="M5.625 0.5C2.1875 0.5 7.23676e-10 3.02632 7.23676e-10 6.18421V43.4474C-4.91154e-05 45.9737 2.50005 48.5 5.625 48.5H35C37.8125 48.5 40 45.6579 40 42.5V6.18421C40 3.97368 38.4375 0.5 34.375 0.5H5.625ZM5.625 4.28947C4.625 4.28947 3.75 4.92105 3.75 6.18421V42.8158C3.75 44.0789 4.375 44.7105 5.625 44.7105H34.375C35.4458 44.7105 36.25 44.0789 36.25 42.8158V6.18421C36.25 4.92105 35.625 4.28947 34.375 4.28947H21.25H5.625Z" fill="white"/>
<path d="M21.875 39.0263C21.875 40.0728 21.0355 40.9211 20 40.9211C18.9645 40.9211 18.125 40.0728 18.125 39.0263C18.125 37.9799 18.9645 37.1316 20 37.1316C21.0355 37.1316 21.875 37.9799 21.875 39.0263Z" fill="white"/>
</svg>
