<svg width="28" height="49" viewBox="0 0 28 49" fill="none" xmlns="http://www.w3.org/2000/svg">
<path fill-rule="evenodd" clip-rule="evenodd" d="M4.08198e-10 5.40909C4.08198e-10 2.68182 1.88462 0.5 4.84616 0.5H23.1538C26.6538 0.5 28 3.5 28 5.40909V43.3182C28 46.0455 26.1154 48.5 23.6923 48.5H4.84616C2.15389 48.5 -4.2315e-05 46.3182 4.08198e-10 44.1364V5.40909ZM4.84615 3.77273C3.98462 3.77273 3.23077 4.31818 3.23077 5.40909V43.5909C3.23077 44.6818 3.76923 45.2273 4.84616 45.2273H23.1538C24.0763 45.2273 24.7692 44.6818 24.7692 43.5909V5.40909C24.7692 4.31818 24.2308 3.77273 23.1538 3.77273H18.3077C18.3077 4.42727 18.3077 5.95455 16.6923 5.95455H11.3077C10.0154 5.95455 9.69231 4.86364 9.69231 3.77273H4.84615Z" fill="currentColor"/>
</svg>
