<svg width="48" height="47" viewBox="0 0 48 47" fill="none" xmlns="http://www.w3.org/2000/svg">
<path fill-rule="evenodd" clip-rule="evenodd" d="M48 5.94737C48 2.61842 45.6 0.5 42.6 0.5L4.8 0.499998C2.4 0.499951 3.70887e-06 2.9211 3.57659e-06 5.94737L2.43894e-06 31.9737C2.31988e-06 34.6974 2.7 36.8158 5.7 36.8158L16.8 36.8158L19.8 36.8158L28.2 36.8158L31.2 36.8158L42.6 36.8158C44.7 36.8158 48 35.3026 48 31.3684L48 5.94737ZM44.4 5.94737C44.4 4.97895 43.8 4.13158 42.6 4.13158L5.4 4.13158C4.2 4.13158 3.6 4.73684 3.6 5.94737L3.6 31.3684C3.6 32.4054 4.2 33.1842 5.4 33.1842L42.6 33.1842C43.8 33.1842 44.4 32.579 44.4 31.3684L44.4 20.4737L44.4 5.94737Z" fill="white"/>
<path d="M24 30.7632C23.0059 30.7632 22.2 29.9502 22.2 28.9474C22.2 27.9445 23.0059 27.1316 24 27.1316C24.9941 27.1316 25.8 27.9445 25.8 28.9474C25.8 29.9502 24.9941 30.7632 24 30.7632Z" fill="white"/>
<path d="M16.8 36.8158L15.6 42.8684L11.1 42.8684C9 42.8684 9 46.5 11.1 46.5L37.2 46.5C39 46.5 39 42.8684 37.2 42.8684L32.4 42.8684L31.2 36.8158L28.2 36.8158L29.4 42.8684L18.6 42.8684L19.8 36.8158L16.8 36.8158Z" fill="white"/>
</svg>
