<svg width="38" height="51" viewBox="0 0 38 51" fill="none" xmlns="http://www.w3.org/2000/svg">
<path d="M11.1978 49.007L13.1928 5.63102H9.02755C7.31375 5.63102 5.9482 7.06426 6.03106 8.77606L7.97841 49.007H11.1978Z" fill="currentColor"/>
<path d="M9.37847 3.11241C9.91941 3.11241 10.3579 2.6739 10.3579 2.13296C10.3579 1.59202 9.91941 1.1535 9.37847 1.1535H3.17434C1.45095 1.1535 0.0818728 2.60214 0.179119 4.32278L2.63946 47.8553C2.72924 49.4439 4.04359 50.6861 5.63468 50.6861H35.002C36.5747 50.6861 37.8874 49.4655 37.9461 47.8939C38.5663 31.2846 33.6301 21.3559 33.558 3.4017C33.5512 1.71353 32.2004 0.313965 30.5122 0.313965H16.3025C14.6993 0.313965 13.3793 1.57456 13.3057 3.17613L13.1928 5.63102L11.1978 49.007H13.1928L15.525 5.39253C15.6102 3.8002 16.9261 2.55272 18.5207 2.55272H28.5526C30.2408 2.55272 31.5916 3.95036 31.5984 5.63853C31.6641 22.0833 35.8105 31.7952 36.0313 46.0733C36.0565 47.7033 34.7183 49.007 33.0881 49.007H13.1928H11.1978H7.97841H7.59887C6.00591 49.007 4.6907 47.762 4.60338 46.1714L2.41327 6.27686C2.31891 4.55797 3.68728 3.11241 5.40876 3.11241H9.37847Z" fill="currentColor"/>
</svg>
