<svg width="25" height="26" viewBox="0 0 25 26" fill="none" xmlns="http://www.w3.org/2000/svg">
<g clip-path="url(#clip0_315_49694)">
<path d="M12.5 0.5C5.6 0.5 0 6.1 0 13C0 19.9 5.6 25.5 12.5 25.5C19.4 25.5 25 19.9 25 13C25 6.1 19.4 0.5 12.5 0.5ZM18.3 9C18.1125 10.975 17.3 15.775 16.8875 17.9875C16.7125 18.925 16.3625 19.2375 16.0375 19.275C15.3125 19.3375 14.7625 18.8 14.0625 18.3375C12.9625 17.6125 12.3375 17.1625 11.275 16.4625C10.0375 15.65 10.8375 15.2 11.55 14.475C11.7375 14.2875 14.9375 11.375 15 11.1125C15.0087 11.0727 15.0075 11.0315 14.9966 10.9923C14.9857 10.953 14.9654 10.9171 14.9375 10.8875C14.8625 10.825 14.7625 10.85 14.675 10.8625C14.5625 10.8875 12.8125 12.05 9.4 14.35C8.9 14.6875 8.45 14.8625 8.05 14.85C7.6 14.8375 6.75 14.6 6.1125 14.3875C5.325 14.1375 4.7125 14 4.7625 13.5625C4.7875 13.3375 5.1 13.1125 5.6875 12.875C9.3375 11.2875 11.7625 10.2375 12.975 9.7375C16.45 8.2875 17.1625 8.0375 17.6375 8.0375C17.7375 8.0375 17.975 8.0625 18.125 8.1875C18.25 8.2875 18.2875 8.425 18.3 8.525C18.2875 8.6 18.3125 8.825 18.3 9Z" fill="#222222"/>
</g>
<defs>
<clipPath id="clip0_315_49694">
<rect width="25" height="25" fill="white" transform="translate(0 0.5)"/>
</clipPath>
</defs>
</svg>
