<svg width="25" height="26" viewBox="0 0 25 26" fill="none" xmlns="http://www.w3.org/2000/svg">
<path d="M12.5014 0.5C14.4189 0.500555 16.3107 0.942115 18.0303 1.79053C19.7499 2.63894 21.2512 3.87146 22.4182 5.39276C23.5852 6.91406 24.3865 8.68337 24.7603 10.5638C25.134 12.4443 25.0701 14.3855 24.5734 16.2373C24.0768 18.0891 23.1608 19.8019 21.8963 21.2431C20.6317 22.6844 19.0526 23.8155 17.2809 24.549C15.5092 25.2825 13.5925 25.5987 11.6791 25.4732C9.76561 25.3476 7.90669 24.7837 6.24608 23.825L1.37021 25.4458C1.1868 25.5067 0.990096 25.5153 0.802067 25.4708C0.614038 25.4263 0.442097 25.3303 0.305463 25.1937C0.168829 25.0571 0.0728848 24.8852 0.0283543 24.6972C-0.0161761 24.5092 -0.00753807 24.3125 0.0533029 24.1292L1.67859 19.2563C0.579927 17.3562 0.000990299 15.2004 1.26934e-06 13.0056C-0.00098776 10.8109 0.576006 8.65456 1.67296 6.7535C2.76992 4.85244 4.34816 3.27366 6.24899 2.17591C8.14982 1.07817 10.3062 0.500153 12.5014 0.5ZM8.19226 6.75625C8.03321 6.76117 7.8772 6.80105 7.73531 6.87306C7.59342 6.94508 7.46913 7.04745 7.37128 7.17292C7.08998 7.50208 6.29609 8.30417 6.29609 9.93333C6.29609 11.5646 7.39837 13.1417 7.55257 13.3625C7.70468 13.5792 9.72171 16.925 12.8077 18.3625C13.3814 18.6292 13.9648 18.8618 14.558 19.0604C15.2956 19.3104 15.9687 19.2771 16.5 19.1937C17.0918 19.1 18.3191 18.3937 18.5754 17.6167C18.8296 16.8458 18.8296 16.1812 18.7525 16.0437C18.6754 15.9062 18.4712 15.8208 18.1607 15.6521C17.4691 15.2773 16.7688 14.9188 16.0603 14.5771C15.779 14.4646 15.5728 14.4104 15.3686 14.7437C15.1623 15.075 14.5767 15.8229 14.3955 16.0437C14.2183 16.2583 14.0371 16.2896 13.7287 16.125C13.4203 15.9604 12.4305 15.6083 11.2553 14.4792C10.5764 13.8017 10.0007 13.0281 9.54667 12.1833C9.36331 11.85 9.52584 11.6729 9.67795 11.5062C9.81756 11.3604 9.98634 11.1208 10.1405 10.925C10.2926 10.7375 10.3468 10.5979 10.4489 10.375C10.551 10.1542 10.4989 9.95833 10.4218 9.79583C10.3447 9.62917 9.73004 7.99583 9.47166 7.33125C9.22162 6.68542 8.96949 6.77708 8.77987 6.76458C8.60276 6.75625 8.39855 6.75625 8.19226 6.75625Z" fill="#222222"/>
</svg>
