<svg width="68" height="49" viewBox="0 0 68 49" fill="none" xmlns="http://www.w3.org/2000/svg">
<path d="M1.65402 44.0692C-0.551318 44.0692 -0.551361 48.5 1.65402 48.5H66.346C68.5513 48.5 68.5513 44.0692 66.346 44.0692H1.65402Z" fill="currentColor"/>
<path d="M25.9135 13.0538V18.5923H32.5297V12.0846L25.9135 13.0538Z" fill="currentColor"/>
<path d="M43.5568 10.4692L34.3676 11.8154V18.5923H43.5568V10.4692Z" fill="currentColor"/>
<path d="M43.5568 27.8231V20.4385H34.3676V26.8615L43.5568 27.8231Z" fill="currentColor"/>
<path d="M25.9135 25.9769L32.5297 26.6692V20.4385H25.9135V25.9769Z" fill="currentColor"/>
<path fill-rule="evenodd" clip-rule="evenodd" d="M5.32969 6.23986C5.32969 3.05105 7.55631 0.5 11.0553 0.5H56.9447C61.0798 0.5 62.6702 4.00769 62.6702 6.23986V33.5797C62.6702 36.7685 60.4436 39.6385 57.5808 39.6385H11.0553C7.87444 39.6385 5.32964 37.0874 5.32969 34.5364V6.23986ZM8.88188 5.97832C8.88188 4.7028 9.77252 4.06503 10.7904 4.06503H56.2095C58.4819 4.06503 59.1181 4.7028 59.1181 5.97832V34.4692H8.88188V5.97832ZM25.9135 18.5923V13.0538L32.5297 12.0846V18.5923H25.9135ZM25.9135 20.4385V25.9769L32.5297 26.6692V20.4385H25.9135ZM34.3676 26.8615L43.5568 27.8231V20.4385H34.3676V26.8615ZM43.5568 18.5923V10.4692L34.3676 11.8154V18.5923H43.5568Z" fill="currentColor"/>
</svg>
