<svg width="224" height="223" viewBox="0 0 224 223" fill="none" xmlns="http://www.w3.org/2000/svg">
<path fill-rule="evenodd" clip-rule="evenodd" d="M130.021 10.7207C129.431 23.6242 148.277 41.7907 169.343 28.874C175.311 23.9866 177.558 20.2163 185.142 27.4776C200.09 41.7907 206.559 45.6308 196.026 54.0092C189.355 61.3404 185.142 88.9192 211.475 93.8066C219.9 93.8066 223.411 93.4575 223.411 102.534V116.847C223.411 132.906 221.305 128.717 209.719 130.811C195.675 131.859 182.192 153.433 195.675 169.91C198.531 173.401 204.522 179.615 194.972 186.319L186.898 194.696C180.578 200.98 177.417 204.122 168.992 195.744C156.704 186.319 134.585 189.461 129.669 210.057C127.933 217.33 133.096 222.884 118.098 222.974H101.933C97.0176 222.974 91.7513 221.577 93.1557 212.151C93.1557 195.744 71.0368 181.78 52.7796 195.744C48.9175 198.698 44.2831 204.122 38.3847 195.744L26.0964 183.874C21.8833 180.034 19.0747 176.892 27.5008 169.213C41.8957 151.059 24.6921 130.811 12.0528 129.764C5.38195 129.211 -0.937778 129.764 0.115562 119.989V102.185C0.115562 95.9012 1.87097 92.4102 9.94613 93.4575C38.0336 91.0138 35.927 58.8966 26.7986 52.2637C23.9899 50.4016 20.0577 45.142 26.7986 38.9979L40.1402 25.7321C42.3637 23.4048 47.8642 19.4482 52.7796 26.7794C64.0145 37.2524 89.6439 34.8087 94.2088 10.7207C94.2088 4.78585 93.1549 0.248007 103.337 0.247849H120.189C130.021 0.247849 130.371 3.04066 130.021 10.7207ZM152.139 69.7188H72.0893C70.9265 69.7188 69.9832 70.6564 69.9832 71.8134V151.409C69.9832 152.566 70.9265 153.503 72.0893 153.503H152.139C153.302 153.503 154.245 152.566 154.245 151.409V71.8134C154.245 70.6564 153.302 69.7188 152.139 69.7188Z" fill="#222222"/>
</svg>
